<?xml version="1.0" standalone="no"?>

<!DOCTYPE svg PUBLIC "-//W3C//DTD SVG 20010904//EN"

 "http://www.w3.org/TR/2001/REC-SVG-20010904/DTD/svg10.dtd">

<svg version="1.0" xmlns="http://www.w3.org/2000/svg"

 width="259.000000pt" height="280.000000pt" viewBox="0 0 259.000000 280.000000"

 preserveAspectRatio="xMidYMid meet">

<path fill="#121414" stroke="none" d="
M115 233

C69 226 35 192 28 147

C25 130 26 114 32 97

C44 59 79 32 120 28

C142 26 161 30 182 42

C211 58 230 89 233 123

C236 174 204 218 155 231

C144 233 125 235 115 233

Z

M50 181

L51 181

L51 180

L51 179

L52 179

C53 179 56 176 56 175

L56 174

L57 174

C58 175 64 172 64 170

C64 169 63 168 63 167

L62 166

L63 166

L65 166

L65 168

L65 170

L67 170

L68 170

L68 168

L68 167

L70 168

L72 168

L72 167

L72 165

L73 165

C74 165 76 164 77 163

C80 161 82 160 84 163

L85 164

L86 164

L86 163

L85 161

C84 160 84 158 85 158

L85 156

L87 157

L88 158

L88 156

C89 156 88 152 87 149

C85 146 84 140 83 137

C82 130 82 119 83 117

L84 116

L82 116

L80 116

L80 119

C79 120 79 122 80 123

L80 124

L79 124

L78 123

L77 120

C77 119 77 116 76 115

L76 113

L74 113

L73 113

L74 114

C75 115 75 116 74 117

L74 119

L73 119

L72 119

L72 121

L72 123

L71 123

L69 123

L70 121

C70 120 70 118 70 117

L70 115

L68 116

C67 117 65 117 64 117

L62 117

L61 118

L61 120

L62 119

L64 118

L64 119

L65 121

L64 121

C63 121 61 121 61 120

L59 120

L60 117

L60 115

L59 116

L57 116

L57 118

L57 120

L55 120

C54 120 53 119 52 118

L50 117

L51 117

L53 117

L53 118

L53 120

L54 118

L55 117

L52 115

C50 115 48 114 48 114

L47 114

L47 116

L47 117

L46 117

L44 117

L44 116

C44 116 44 115 45 114

L46 114

L45 113

L44 111

L45 111

C46 110 46 109 46 108

L46 106

L47 106

C47 106 48 106 49 107

L49 108

L51 108

L52 107

L52 106

L53 104

L54 103

L56 103

L55 105

L53 108

L54 109

L56 111

L56 109

C57 109 57 107 56 107

L56 106

L57 106

L58 106

L58 105

L57 104

L58 105

L60 105

L60 106

C60 106 59 107 59 108

L58 109

L59 110

L60 111

L62 109

C64 105 63 104 58 102

L53 101

L53 100

L53 99

L52 99

C50 99 40 95 39 94

L38 93

L37 94

C36 96 33 106 31 118

C29 125 30 147 33 157

C35 165 42 180 45 183

L46 184

L48 183

C48 182 49 181 50 181

Z

M225 161

C232 140 231 112 222 95

C220 91 219 88 219 87

C219 86 214 78 213 78

C213 78 211 79 209 81

C207 83 204 84 204 84

C203 84 202 85 200 87

L198 89

L198 88

L198 88

L195 90

C193 91 192 92 191 92

L190 92

L190 93

C190 94 191 96 192 97

L194 100

L195 98

L196 97

L195 96

C195 95 194 94 194 94

L194 93

L196 93

L198 93

L198 95

L197 97

L198 97

L200 97

L200 96

L201 94

L200 94

L199 94

L199 92

L199 90

L200 91

L202 92

L201 93

L201 94

L202 95

L204 95

L205 94

L207 92

L208 95

C209 96 210 99 211 100

L211 103

L210 103

L209 103

L209 102

L209 100

L207 100

L206 99

L206 102

L207 105

L205 105

L203 106

L204 107

L204 108

L202 108

L199 108

L199 106

L199 104

L198 104

L197 105

L197 105

C197 105 197 106 198 107

L198 109

L196 109

L194 108

L194 109

C194 109 192 110 191 111

L188 111

L188 110

C188 107 188 106 187 105

L186 105

L186 108

L187 112

L185 112

L184 112

L185 111

L185 109

L183 109

L181 108

L181 107

L181 105

L180 105

L179 106

L179 107

C179 108 179 110 179 111

L179 114

L178 115

L177 115

L177 113

C177 112 177 110 176 109

L175 108

L174 109

L173 110

L174 110

L175 110

L175 111

C174 112 175 117 176 121

C177 128 177 131 176 137

C175 140 175 146 175 149

L174 154

L176 151

C177 149 178 148 178 148

L179 148

L179 150

C179 151 179 153 178 154

L177 156

L178 156

C178 156 179 155 180 154

C181 153 182 152 182 152

C183 152 184 151 185 150

L186 149

L186 150

C186 151 186 152 186 153

L186 154

L188 154

C190 155 192 156 192 158

L194 161

L194 159

L195 157

L197 158

L199 158

L199 156

L199 154

L201 154

L202 154

L201 156

C201 157 201 158 200 160

L200 162

L201 159

L202 157

L204 160

L207 162

L208 162

C209 161 209 160 209 159

L209 158

L210 158

L211 158

L210 161

C209 162 209 164 209 165

L209 168

L211 165

L212 163

L212 164

L212 165

L214 164

L215 163

L215 164

L215 166

L217 166

L218 166

L219 167

L219 169

L221 168

C222 168 224 164 225 161

Z

M143 162

C150 159 155 155 158 150

C168 135 166 117 153 105

C145 97 140 96 130 96

C119 96 114 97 106 105

C98 112 95 120 95 130

C95 147 105 160 122 164

C128 165 138 164 143 162

Z

M90 160

L89 159

L88 159

L88 160

L88 161

C89 162 90 162 90 162

L91 162

L90 160

Z

M72 113

L72 111

L72 111

L71 111

L71 113

L70 114

L71 114

L72 114

L72 113

Z

M69 112

C69 111 69 109 70 108

L70 106

L68 106

L67 107

L66 110

L66 113

L67 113

L69 113

L69 112

Z

M193 105

L193 103

L191 105

C190 106 189 108 190 108

L190 110

L192 108

C193 107 194 105 193 105

Z

M66 105

L66 104

L65 105

C64 106 64 107 64 108

L64 109

L65 107

C66 106 66 105 66 105

Z

M205 104

L205 103

L204 103

C204 103 203 103 203 104

L202 105

L203 105

C203 105 204 105 205 104

Z

M188 101

C188 100 188 99 188 98

L188 96

L186 96

L184 96

L184 97

C184 98 185 99 185 100

L186 102

L187 102

L188 101

L188 101

Z

M54 172

L54 171

L55 171

C55 171 56 171 57 172

L57 173

L56 173

L54 173

L54 172

Z

M67 120

L67 118

L68 118

L68 118

L68 120

L68 121

L67 121

L66 121

L67 120

Z

M39 114

C39 113 40 112 39 111

L39 110

L37 111

L35 112

L35 108

L36 105

L37 105

L39 105

L38 106

L38 108

L39 108

L40 108

L40 106

L41 105

L43 106

L45 107

L44 109

C43 111 42 112 42 112

L41 112

L41 114

L41 116

L39 116

L38 116

L39 114

Z

M46 104

L46 103

L47 103

L49 104

L49 103

L48 101

L49 101

L50 101

L50 103

L50 105

L49 105

C48 105 47 104 46 104

Z

M214 99

L214 97

L212 96

L210 96

L210 95

L211 95

L210 93

L209 92

L211 91

L214 90

L214 92

L214 93

L215 93

L216 93

L216 91

L216 89

L217 89

L218 89

L218 92

C219 93 219 95 218 96

L218 98

L216 96

L215 94

L215 96

C215 97 216 99 216 100

L217 101

L216 101

L214 101

L214 99

Z

M203 88

L203 85

L204 86

L205 87

L206 87

L207 86

L207 88

L207 90

L205 91

L203 91

L203 88

Z

M206 90

C206 89 206 89 205 89

L204 88

L204 89

L204 90

L205 90

L206 90

L206 90

Z

"/>

<path fill="#76828d" stroke="none" d="
M45 183

C43 182 41 177 42 176

L43 175

L43 176

L44 178

L45 177

L45 176

L44 175

C44 174 43 172 43 170

L42 167

L44 169

C44 170 45 171 45 172

C45 173 45 174 46 174

L47 175

L47 174

C48 173 47 170 45 168

C44 165 43 162 43 161

L44 160

L45 163

L47 166

L47 165

L48 165

L47 167

L47 170

L48 168

L49 167

L49 168

L48 170

L50 170

L51 170

L51 168

C51 166 50 165 49 164

L47 163

L47 161

C48 160 47 158 47 156

C46 155 45 150 44 145

L43 137

L42 137

L41 137

L41 135

L41 134

L42 135

L43 137

L42 133

C42 131 42 129 41 128

L41 127

L42 127

C42 127 43 125 43 123

L44 120

L42 120

L40 120

L39 124

L38 128

L38 123

L38 119

L36 119

L35 118

L35 121

L36 125

L35 123

L35 122

L34 123

L33 123

L34 121

L34 118

L32 118

L31 118

L31 115

C33 107 36 96 37 94

L38 93

L39 94

C40 95 50 99 52 99

L53 99

L53 100

L53 101

L58 102

C63 104 64 105 62 109

L60 111

L59 110

L58 109

L59 108

C59 107 60 106 60 106

L60 105

L58 105

L57 104

L58 105

L58 106

L57 106

L56 106

L56 107

C57 107 57 109 56 109

L56 111

L54 109

L53 108

L55 105

L56 103

L54 103

L53 104

L52 106

L52 107

L51 108

L49 108

L49 107

C48 106 47 106 47 106

L46 106

L46 108

C46 109 46 110 45 111

L44 111

L45 113

L46 114

L45 114

C44 115 44 116 44 116

L44 117

L46 117

L47 117

L47 116

L47 114

L48 114

C48 114 50 115 52 115

L55 117

L54 118

L53 120

L53 118

L53 117

L51 117

L50 117

L52 118

C53 119 54 120 55 120

L57 120

L57 118

L57 116

L59 116

L60 115

L60 117

L59 120

L61 120

C61 121 63 121 64 121

L65 121

L64 119

L64 118

L62 119

L61 120

L61 118

L62 117

L64 117

C65 117 67 117 68 116

L70 115

L70 117

C70 118 70 120 70 121

L69 123

L71 123

L72 123

L72 121

L72 119

L73 119

L74 119

L74 117

C75 116 75 115 74 114

L73 113

L74 113

L76 113

L76 115

C77 116 77 119 77 120

L78 123

L79 124

L80 124

L80 123

C79 122 79 120 80 119

L80 116

L82 116

L84 116

L83 117

C82 119 82 130 83 137

C84 140 85 146 87 149

C88 152 89 156 88 156

L88 158

L87 157

L85 156

L85 158

C84 158 84 160 85 161

L86 163

L86 164

L85 164

L84 163

C82 160 80 161 77 163

C76 164 74 165 73 165

L72 165

L72 167

L72 168

L70 168

L68 167

L68 168

L68 170

L67 170

L65 170

L65 168

L65 166

L63 166

L62 166

L63 167

C63 168 64 169 64 170

C64 172 58 175 57 174

L56 174

L56 175

C56 176 53 179 52 179

L51 179

L51 180

L51 181

L50 181

C49 181 48 182 48 182

L47 184

L45 183

Z

M57 172

C56 171 55 171 55 171

L54 171

L54 172

L54 173

L56 173

L57 173

L57 172

Z

M53 160

C50 147 49 144 48 138

C48 134 48 130 48 128

C48 127 48 124 48 123

L47 120

L46 122

C44 127 47 151 51 161

L53 165

L54 165

C54 164 54 163 53 160

Z

M72 158

L71 156

L73 156

L74 156

L73 157

L73 159

L75 159

L77 159

L75 156

C74 154 73 150 72 148

L70 143

L69 143

C69 143 68 143 68 144

L66 144

L66 146

C66 147 67 150 68 153

L70 159

L71 159

L72 159

L72 158

Z

M56 153

L55 149

L54 149

L53 149

L54 152

C54 153 54 155 55 156

L55 157

L56 157

C56 156 56 154 56 153

Z

M61 151

C60 149 60 147 60 147

L60 146

L59 146

L58 146

L58 148

C58 150 60 155 61 155

L62 155

L61 151

Z

M83 152

L83 150

L81 150

L80 150

L79 146

L78 142

L77 142

L76 142

L76 144

L76 145

L75 145

L74 144

L74 146

C74 147 74 149 75 151

L76 154

L79 154

L83 154

L83 152

Z

M54 142

C54 140 53 138 53 137

L52 136

L51 138

C50 139 50 141 50 142

L51 143

L52 143

L53 142

L53 143

L53 145

L54 145

L55 145

L54 142

Z

M58 135

C58 129 58 124 58 123

L58 121

L57 122

C56 123 56 141 57 143

L57 145

L58 145

L59 145

L58 135

Z

M66 128

L66 123

L65 123

L64 123

L63 125

C63 126 63 128 63 130

L64 132

L65 132

L66 132

L66 128

Z

M53 128

C54 125 53 124 52 123

L50 121

L50 126

L50 131

L51 131

L53 131

L53 128

Z

M68 120

L68 118

L68 118

L67 118

L67 120

L66 121

L67 121

L68 121

L68 120

Z

M41 114

L41 112

L42 112

C42 112 43 111 44 109

L45 107

L43 106

L41 105

L40 106

L40 108

L39 108

L38 108

L38 106

L39 105

L37 105

L36 105

L35 108

L35 112

L37 111

L39 110

L39 111

C40 112 39 113 39 114

L38 116

L39 116

L41 116

L41 114

Z

M50 103

L50 101

L49 101

L48 101

L49 103

L49 104

L47 103

L46 103

L46 104

C47 104 48 105 49 105

L50 105

L50 103

Z

M219 167

L218 166

L217 166

L215 166

L215 164

L215 163

L214 164

L212 165

L212 164

L212 163

L211 165

L209 168

L209 165

C209 164 209 162 210 161

L211 158

L210 158

L209 158

L209 159

C209 160 209 161 208 162

L207 162

L204 160

L202 157

L201 159

L200 162

L200 160

C201 158 201 157 201 156

L202 154

L201 154

L199 154

L199 156

L199 158

L197 158

L195 157

L194 159

L194 161

L192 158

C192 156 190 155 188 154

L186 154

L186 153

C186 152 186 151 186 150

L186 149

L185 150

C184 151 183 152 182 152

C182 152 181 153 180 154

C179 155 178 156 178 156

L177 156

L178 154

C179 153 179 151 179 150

L179 148

L178 148

C178 148 177 149 176 151

L174 154

L175 149

C175 146 175 140 176 137

C177 131 177 128 176 121

C175 117 174 112 175 111

L175 110

L174 110

L173 110

L174 109

L175 108

L176 109

C177 110 177 112 177 113

L177 115

L178 115

L179 114

L179 111

C179 110 179 108 179 107

L179 106

L180 105

L181 105

L181 107

L181 108

L183 109

L185 109

L185 111

L184 112

L185 112

L187 112

L186 108

L186 105

L187 105

C188 106 188 107 188 110

L188 111

L191 111

C192 110 194 109 194 109

L194 108

L196 109

L198 109

L198 107

C197 106 197 105 197 105

L197 105

L198 104

L199 104

L199 106

L199 108

L202 108

L204 108

L204 107

L203 106

L205 105

L207 105

L206 102

L206 99

L207 100

L209 100

L209 102

L209 103

L210 103

L211 103

L211 100

C210 99 209 96 208 95

L207 92

L205 94

L204 95

L202 95

L201 94

L201 93

L202 92

L200 91

L199 90

L199 92

L199 94

L200 94

L201 94

L200 96

L200 97

L198 97

L197 97

L198 95

L198 93

L196 93

L194 93

L194 94

C194 94 195 95 195 96

L196 97

L195 98

L194 100

L192 97

C191 96 190 94 190 93

L190 92

L191 92

C192 92 193 91 195 90

L198 88

L198 88

L198 89

L200 87

C202 85 203 84 204 84

C204 84 207 83 209 81

C211 79 213 78 213 78

C214 78 219 86 219 87

C219 88 220 91 222 95

L225 101

L223 101

L222 101

L222 103

L222 105

L221 104

C221 103 220 102 219 102

L218 102

L218 104

C218 105 219 108 220 111

C221 115 221 120 221 129

L222 141

L220 142

L219 142

L219 135

C220 128 218 109 217 108

C217 108 217 107 217 106

L217 105

L215 104

L214 104

L214 106

C215 107 215 109 214 110

L213 113

L214 113

L215 112

L215 114

C216 115 216 118 216 121

L216 125

L217 125

L218 124

L218 127

L218 129

L217 128

L216 128

L216 129

L216 131

L217 131

L218 131

L218 133

L218 136

L217 134

L216 132

L216 137

C216 146 216 147 215 148

C214 148 214 150 213 152

L213 156

L215 156

L217 156

L217 153

C218 151 218 149 219 147

L219 144

L220 144

L221 144

L220 147

C220 148 219 151 219 152

C218 154 218 156 218 157

L218 159

L219 159

L220 159

L220 157

L221 155

L222 156

L223 157

L222 158

C222 159 221 160 221 160

L221 161

L222 161

C222 161 223 161 224 161

L225 161

L224 164

C223 166 222 168 221 168

L219 169

L219 167

Z

M212 147

C214 143 214 129 213 120

C212 112 210 105 208 105

L208 105

L209 110

C209 113 209 116 210 116

C211 118 211 130 211 138

L210 145

L209 144

L208 144

L208 142

C209 140 208 139 207 138

L206 137

L206 141

L206 146

L208 146

L210 146

L210 148

L209 150

L210 150

L211 150

L212 147

Z

M190 146

L191 145

L191 146

L191 148

L192 148

L193 148

L193 146

C194 145 194 141 195 139

L195 134

L194 134

L193 134

L193 135

C193 136 193 137 192 137

L191 138

L192 135

L192 133

L191 133

L190 133

L189 139

C189 142 188 145 187 146

L187 148

L188 148

C189 148 190 147 190 146

Z

M181 143

L181 142

L182 144

L183 146

L183 144

L183 142

L184 143

L184 145

L185 145

L186 145

L186 142

C187 140 187 138 187 136

L187 134

L186 134

L185 134

L185 136

L185 138

L184 136

L184 134

L183 134

L182 134

L182 136

C182 137 181 140 181 141

C180 142 179 144 179 144

L179 145

L180 145

L181 145

L181 143

Z

M203 139

L203 134

L202 134

L201 134

L201 136

C200 137 200 140 200 141

L200 143

L202 143

L203 143

L203 139

Z

M203 131

C204 128 202 113 201 111

C200 110 199 109 199 109

L198 109

L199 113

C199 115 199 118 200 120

C201 122 201 126 201 128

L201 133

L202 133

L203 133

L203 131

Z

M208 130

L209 131

L209 130

C208 129 208 128 208 127

C207 127 207 126 207 126

L207 125

L208 126

L209 126

L209 125

C209 125 208 124 208 123

L207 122

L208 122

L209 123

L209 122

L209 120

L207 121

L205 121

L206 126

C206 128 206 131 206 132

L206 133

L207 131

L207 130

L208 130

Z

M195 118

C195 117 194 115 193 114

L192 112

L191 112

C191 113 191 115 192 117

L193 121

L194 121

L195 121

L195 118

Z

M207 113

C207 111 207 109 206 109

L205 108

L205 109

L205 110

L204 110

L203 109

L203 110

C203 110 204 112 204 114

L205 117

L206 116

C207 116 207 114 207 113

Z

M213 107

L212 106

L213 107

L213 109

L214 109

L214 108

L213 107

Z

M216 100

C216 99 215 97 215 96

L215 94

L216 96

L218 98

L218 96

C219 95 219 93 218 92

L218 89

L217 89

L216 89

L216 91

L216 93

L215 93

L214 93

L214 92

L214 90

L211 91

L209 92

L210 93

L211 95

L210 95

L210 96

L212 96

L214 97

L214 99

L214 101

L216 101

L217 101

L216 100

Z

M207 88

L207 86

L206 87

L205 87

L204 86

L203 85

L203 88

L203 91

L205 91

L207 90

L207 88

Z

M88 161

L88 160

L88 159

L89 159

L90 160

L91 162

L90 162

C90 162 89 162 88 161

Z

M40 154

C38 147 37 138 37 133

L37 128

L38 128

L39 128

L39 129

C39 129 39 132 40 136

C40 139 40 143 41 145

L41 148

L42 148

L43 147

L43 153

L43 158

L42 158

L41 158

L40 154

Z

M35 148

L35 146

L35 146

L36 146

L36 148

L37 149

L36 149

L35 149

L35 148

Z

M131 131

L131 129

L130 129

L129 129

L129 128

L129 127

L130 127

C132 127 133 129 132 131

L132 133

L131 133

L130 133

L131 131

Z

M71 113

L71 111

L72 111

L72 111

L72 113

L72 114

L71 114

L70 114

L71 113

Z

M66 110

L67 107

L68 106

L70 106

L70 108

C69 109 69 111 69 112

L69 113

L67 113

L66 113

L66 110

Z

M190 108

C189 108 190 106 191 105

L193 103

L193 105

C194 105 193 107 192 108

L190 110

L190 108

Z

M64 108

C64 107 64 106 65 105

L66 104

L66 105

C66 105 66 106 65 107

L64 109

L64 108

Z

M203 104

C203 103 204 103 204 103

L205 103

L205 104

C204 105 203 105 203 105

L202 105

L203 104

Z

M185 100

C185 99 184 98 184 97

L184 96

L186 96

L188 96

L188 98

C188 99 188 100 188 101

L188 101

L187 102

L186 102

L185 100

Z

M204 89

L204 88

L205 89

C206 89 206 89 206 90

L206 90

L205 90

L204 90

L204 89

Z

"/>

<path fill="#ff00ff" stroke="none" d="
"/>

<path fill="#cacccf" stroke="none" d="
M38 171

C33 159 31 150 31 134

L31 119

L32 118

L34 118

L34 120

L33 123

L34 123

L35 122

L35 123

L36 125

L35 121

L35 118

L36 119

L38 119

L38 123

L38 128

L39 124

L40 120

L42 120

L44 120

L43 123

C43 125 42 127 42 127

L41 127

L41 128

C42 129 42 131 42 133

L43 137

L42 135

L41 134

L41 135

L41 137

L42 137

L43 137

L44 145

C45 150 46 155 47 156

C47 158 48 160 47 161

L47 163

L49 164

C50 165 51 166 51 168

L51 170

L50 170

L48 170

L49 168

L49 167

L48 168

L47 170

L47 167

L48 165

L47 165

L47 166

L45 163

L44 160

L43 161

C43 162 44 165 45 168

C47 170 48 173 47 174

L47 175

L46 174

C45 174 45 173 45 172

C45 171 44 170 44 169

L42 167

L43 170

C43 172 44 174 44 175

L45 176

L45 177

L44 177

L43 176

L42 175

L42 176

L41 178

L38 171

Z

M43 153

L43 147

L42 148

L41 148

L41 145

C40 143 40 139 40 136

C39 132 39 129 39 129

L39 128

L38 128

L37 128

L37 133

C37 138 38 147 40 154

L41 158

L42 158

L43 158

L43 153

Z

M36 148

L36 146

L35 146

L35 146

L35 148

L35 149

L36 149

L37 149

L36 148

Z

M51 161

C47 151 44 127 46 122

L47 120

L48 123

C48 124 48 127 48 128

C48 130 48 134 48 138

C49 144 50 147 53 160

C54 163 54 164 54 165

L53 165

L51 161

Z

M122 164

C111 162 101 154 97 143

C92 130 95 115 106 105

C114 97 119 96 130 96

C140 96 145 97 153 105

C166 117 168 135 158 150

C151 161 136 167 122 164

Z

M132 132

C133 131 133 129 133 128

L132 127

L130 127

C128 127 127 128 126 128

L126 129

L127 129

L128 128

L129 129

L130 131

L129 131

L128 132

L129 133

C129 135 131 134 132 132

Z

M221 160

C221 160 222 159 222 158

L223 157

L222 156

L221 155

L220 157

L220 159

L219 159

L218 159

L218 157

C218 156 218 154 219 152

C219 151 220 148 220 147

L221 144

L220 144

L219 144

L219 147

C218 149 218 151 217 153

L217 156

L215 156

L213 156

L213 152

C214 150 214 148 215 148

C216 147 216 146 216 137

L216 132

L217 134

L218 136

L218 133

L218 131

L217 131

L216 131

L216 129

L216 128

L217 128

L218 129

L218 127

L218 124

L217 125

L216 125

L216 121

C216 118 216 115 215 114

L215 112

L214 113

L213 113

L214 110

C215 109 215 107 214 106

L214 104

L215 104

L217 105

L217 106

C217 107 217 108 217 108

C218 109 220 128 219 135

L219 142

L220 142

L222 141

L221 129

C221 120 221 115 220 111

C219 108 218 105 218 104

L218 102

L219 102

C220 102 221 103 221 104

L222 105

L222 103

L222 101

L223 101

L225 101

L226 104

C230 118 230 143 226 158

L225 161

L223 161

L221 161

L221 160

Z

M68 153

C67 150 66 147 66 146

L66 144

L68 144

C68 143 69 143 69 143

L70 143

L72 148

C73 150 74 154 75 156

L77 159

L75 159

L73 159

L73 157

L74 156

L73 156

L71 156

L72 158

L72 159

L71 159

L70 159

L68 153

Z

M55 156

C54 155 54 153 54 152

L53 149

L54 149

L55 149

L56 153

C56 154 56 156 56 157

L55 157

L55 156

Z

M59 152

C59 151 58 149 58 148

L58 146

L59 146

L60 146

L60 147

C60 147 60 149 61 151

L62 155

L61 155

C61 155 60 154 59 152

Z

M75 151

C74 149 74 147 74 146

L74 144

L75 145

L76 145

L76 144

L76 142

L77 142

L78 142

L79 146

L80 150

L81 150

L83 150

L83 152

L83 154

L79 154

L76 154

L75 151

Z

M210 148

L210 146

L208 146

L206 146

L206 141

L206 137

L207 138

C208 139 209 140 208 142

L208 144

L209 144

L210 145

L211 138

C211 130 211 118 210 116

C209 116 209 113 209 110

L208 105

L208 105

C210 105 212 112 213 120

C214 129 214 143 212 147

L211 150

L210 150

L209 150

L210 148

Z

M187 146

C188 145 189 142 189 139

L190 133

L191 133

L192 133

L192 135

L191 138

L192 137

C193 137 193 136 193 135

L193 134

L194 134

L195 134

L195 139

C194 141 194 145 193 146

L193 148

L192 148

L191 148

L191 146

L191 145

L190 146

C190 147 189 148 188 148

L187 148

L187 146

Z

M53 143

L53 142

L52 143

L51 143

L50 142

C50 141 50 139 51 138

L52 136

L53 137

C53 138 54 140 54 142

L55 145

L54 145

L53 145

L53 143

Z

M57 143

C56 141 56 123 57 122

L58 121

L58 123

C58 124 58 129 58 135

L59 145

L58 145

L57 145

L57 143

Z

M179 144

C179 144 180 142 181 141

C181 140 182 137 182 136

L182 134

L183 134

L184 134

L184 136

L185 138

L185 136

L185 134

L186 134

L187 134

L187 136

C187 138 187 140 186 142

L186 145

L185 145

L184 145

L184 143

L183 142

L183 144

L183 146

L182 144

L181 142

L181 143

L181 145

L180 145

L179 145

L179 144

Z

M200 141

C200 140 200 137 201 136

L201 134

L202 134

L203 134

L203 139

L203 143

L202 143

L200 143

L200 141

Z

M201 128

C201 126 201 122 200 120

C199 118 199 115 199 113

L198 109

L199 109

C199 109 200 110 201 111

C202 113 204 128 203 131

L203 133

L202 133

L201 133

L201 128

Z

M63 130

C63 128 63 126 63 125

L64 123

L65 123

L66 123

L66 128

L66 132

L65 132

L64 132

L63 130

Z

M206 132

C206 131 206 128 206 126

L205 121

L207 121

L209 120

L209 122

L209 123

L208 122

L207 122

L208 123

C208 124 209 125 209 125

L209 126

L208 126

L207 125

L207 126

C207 126 207 127 208 127

C208 128 208 129 209 130

L209 131

L208 130

L207 130

L207 131

L206 133

L206 132

Z

M50 126

L50 121

L52 123

C53 124 54 125 53 128

L53 131

L51 131

L50 131

L50 126

Z

M192 117

C191 115 191 113 191 112

L192 112

L193 114

C194 115 195 117 195 118

L195 121

L194 121

L193 121

L192 117

Z

M204 114

C204 112 203 110 203 110

L203 109

L204 110

L205 110

L205 109

L205 108

L206 109

C207 110 208 115 206 116

L205 117

L204 114

Z

M213 107

L212 106

L213 107

L214 108

L214 109

L213 109

L213 107

Z

"/>

<path fill="#ffffff" stroke="none" d="
M129 134

C129 133 129 132 129 131

L128 129

L127 129

L126 129

L127 128

L128 127

L129 128

C130 129 131 130 131 131

L131 132

L130 132

L129 132

L130 133

L132 134

L130 134

L129 134

L129 134

Z

M227 93

L227 92

L227 91

L228 91

L228 92

L229 94

L229 94

C228 94 228 94 227 93

Z

"/>

</svg>

